<svg id="Capa_1" enable-background="new 0 0 512 512" height="512" viewBox="0 0 512 512" width="512" xmlns="http://www.w3.org/2000/svg"><g><path d="m445.026 305.295-20.656-48.423 13.248-13.248c4.091-4.091 10.725-4.091 14.816 0l19.723 19.723c4.091 4.091 4.091 10.725 0 14.816z" fill="#dfdde2"/><path d="m482.207 392.456-20.656-48.423 12.841-12.841c4.091-4.091 10.725-4.091 14.816 0l19.723 19.723c4.091 4.091 4.091 10.725 0 14.816z" fill="#dfdde2"/><path d="m395.452 189.077-93.251 93.261 49.763 61.79 9.879.618v11.66l44.787 55.619h.01l9.879 1.645v10.623l35.51 44.101c3.908 4.853 11.162 5.243 15.568.837l23.182-23.182c6.049-6.049 7.813-15.168 4.457-23.037z" fill="#eab14d"/><path d="m319.185 303.432-16.989-21.096 93.256-93.256 13.729 32.185c-27.175 24.911-58.324 53.334-89.996 82.167z" fill="#e49542"/><g><path d="m423.298 395.348-16.668 16.678 9.89 12.268 17.894-17.831c3.07-3.07 3.07-8.046 0-11.116-3.07-3.069-8.046-3.069-11.116.001z" fill="#dfdde2"/></g><g><path d="m368.632 327.45-16.668 16.679 9.879 12.278 17.904-17.841c3.07-3.07 3.07-8.046 0-11.116-3.069-3.07-8.045-3.07-11.115 0z" fill="#dfdde2"/></g><path d="m206.705 66.974 48.423 20.656 13.248-13.248c4.091-4.091 4.091-10.725 0-14.816l-19.723-19.723c-4.091-4.091-10.725-4.091-14.816 0z" fill="#dfdde2"/><path d="m119.545 29.793 48.423 20.656 12.842-12.842c4.091-4.091 4.091-10.725 0-14.816l-19.725-19.723c-4.091-4.091-10.725-4.091-14.816 0z" fill="#dfdde2"/><path d="m322.923 116.548-93.261 93.251-61.79-49.763-.618-9.879h-11.66l-55.62-44.787v-.01l-1.644-9.88h-10.624l-44.1-35.51c-4.853-3.908-5.243-11.162-.838-15.568l23.182-23.182c6.049-6.049 15.168-7.813 23.037-4.457z" fill="#eab14d"/><path d="m208.568 192.815 21.096 16.989 93.256-93.256-32.185-13.729c-24.911 27.175-53.333 58.324-82.167 89.996z" fill="#e49542"/><path d="m106.186 459.35 56.99-56.99 21.045 85.798c.873 3.558-.176 7.313-2.767 9.904l-10.87 10.87c-4.091 4.091-10.725 4.091-14.816 0z" fill="#eab14d"/><path d="m171.746 437.301-8.57-34.941-56.99 56.99 19.583 19.583c10.398-9.41 26.376-23.873 45.977-41.632z" fill="#e49542"/><path d="m52.65 405.814 56.99-56.99-85.798-21.045c-3.558-.873-7.313.176-9.904 2.767l-10.87 10.87c-4.091 4.091-4.091 10.725 0 14.816z" fill="#eab14d"/><path d="m33.068 386.231 19.583 19.583 56.99-56.99-34.941-8.57c-17.76 19.601-32.223 35.579-41.632 45.977z" fill="#e49542"/><path d="m407.072 24.546 80.382 80.382c-2.938 6.774-7.12 13.085-12.559 18.524-33.881 33.881-322.192 294.88-372.468 340.369-4.18 3.782-10.592 3.625-14.583-.367l-19.654-19.643-19.643-19.654c-3.992-3.992-4.149-10.403-.367-14.583 45.488-50.276 306.487-338.588 340.368-372.469 5.439-5.439 11.75-9.621 18.524-12.559z" fill="#f9f6f9"/><path d="m487.452 104.93-18.129-18.129c-2.938 6.772-7.124 13.081-12.564 18.521-37.13 37.13-379.931 347.119-379.931 347.119v.003l11.015 11.009c3.992 3.992 10.403 4.149 14.583.367 50.277-45.489 338.588-306.488 372.468-340.369 5.439-5.437 9.62-11.748 12.558-18.521z" fill="#dfdde2"/><path d="m487.454 104.932c9.656-22.251 5.719-49.544-12.562-67.825-18.28-18.28-45.574-22.217-67.824-12.562z" fill="#818181"/><path d="m469.321 86.799 18.133 18.133c9.656-22.251 5.719-49.544-12.562-67.825-3.111-3.111-6.487-5.796-10.051-8.08 11.14 17.38 12.492 39.309 4.48 57.772z" fill="#595959"/><g><path d="m116.653 88.702-16.679 16.668-12.268-9.89 17.831-17.894c3.07-3.07 8.046-3.07 11.115 0 3.07 3.07 3.07 8.046.001 11.116z" fill="#dfdde2"/></g><g><path d="m184.551 143.368-16.679 16.668-12.278-9.879 17.841-17.904c3.07-3.07 8.046-3.07 11.116 0 3.069 3.069 3.069 8.045 0 11.115z" fill="#dfdde2"/></g><g><path d="m419.629 131.313c-2.01 0-4.022-.767-5.556-2.301-3.068-3.068-3.068-8.044 0-11.112 2.484-2.484 3.909-6.124 3.909-9.987s-1.425-7.502-3.908-9.986c-5.229-5.227-14.749-5.226-19.974 0-3.069 3.068-8.044 3.068-11.113 0-3.068-3.068-3.068-8.044 0-11.112 11.438-11.437 30.76-11.437 42.198 0 5.408 5.409 8.511 13.099 8.511 21.098s-3.102 15.69-8.511 21.099c-1.534 1.534-3.545 2.301-5.556 2.301z" fill="#9dc6fb"/></g><g><path d="m50.06 469.798c-2.01 0-4.022-.767-5.556-2.301-3.068-3.068-3.068-8.044 0-11.112l86.348-86.348c3.069-3.068 8.044-3.068 11.113 0 3.068 3.068 3.068 8.044 0 11.112l-86.348 86.348c-1.535 1.533-3.546 2.301-5.557 2.301z" fill="#eab14d"/></g></g></svg>