<svg height="512pt" viewBox="0 0 512.00698 512" width="512pt" xmlns="http://www.w3.org/2000/svg"><path d="m260.40625 60.632812 21.210938 21.210938-37.207032 37.207031-21.210937-21.210937zm0 0" fill="#68544f"/><path d="m200.273438 78.34375-21.210938-21.210938 38.921875-38.933593 21.210937 21.210937zm0 0" fill="#68544f"/><path d="m472.542969 272.753906 21.210937 21.210938-38.917968 38.921875-21.210938-21.210938zm0 0" fill="#53433f"/><path d="m414.125 288.757812-21.207031-21.210937 37.191406-37.207031 21.210937 21.210937zm0 0" fill="#53433f"/><path d="m216.476562 73.335938-56.441406-56.4375c-18.9375-18.941407-46.582031-21.535157-68.773437-6.492188-22.265625 15.074219-30.148438 41.734375-19.601563 66.328125 19.265625 44.972656 59.769532 87.128906 95.480469 124.320313 13.417969 13.960937 26.441406 27.496093 37.765625 40.578124l95.109375-111.550781c-31.304687-13.53125-59.414063-32.621093-83.539063-56.746093zm0 0" fill="#678d12"/><path d="m495.058594 351.921875-56.4375-56.441406c-24.128906-24.125-43.214844-52.234375-56.75-83.539063l-111.53125 95.109375c13.078125 11.339844 26.628906 24.363281 40.617187 37.792969 37.179688 35.714844 79.324219 76.1875 124.265625 95.449219 7.277344 3.121093 14.734375 4.628906 22.015625 4.628906 17.34375 0 33.691407-8.539063 44.296875-24.195313 15.042969-22.238281 12.449219-49.894531-6.476562-68.804687zm0 0" fill="#487904"/><path d="m461.601562 112.785156c-14.699218 29.699219-32.402343 57.300782-52.800781 82.800782l-92.402343-92.402344c25.503906-20.398438 53.101562-38.097656 82.800781-52.800782zm0 0" fill="#93bf00"/><path d="m461.601562 112.785156c-14.699218 29.699219-32.402343 57.300782-52.800781 82.800782l-46.199219-46.199219 67.800782-67.800781zm0 0" fill="#678d12"/><path d="m324.800781 278.085938-166.554687 138.996093-9.300782 6.003907-60-60 4.5-7.5 140.15625-168.101563 45.597657 45.300781zm0 0" fill="#93bf00"/><path d="m279.199219 232.785156 45.601562 45.300782-166.554687 138.996093-9.300782 6.003907-30-30zm0 0" fill="#678d12"/><path d="m480.199219 95.683594-17.996094 17.703125-63.601563-63.601563 17.699219-18c17.699219-17.402344 46.199219-17.402344 63.601563 0 17.699218 17.699219 17.699218 46.199219.296875 63.898438zm0 0" fill="#e2e2e7"/><path d="m480.199219 95.683594-17.996094 17.703125-31.800781-31.800781 49.5-49.800782c17.699218 17.699219 17.699218 46.199219.296875 63.898438zm0 0" fill="#d3d3d8"/><path d="m342.207031 21.304688 21.300781-21.30078175 148.5 148.49999975-21.300781 21.296875zm0 0" fill="#68544f"/><path d="m135.144531 376.882812c-40.796875-40.5-109.5-39-127.199219-21.300781-22.199218 22.203125 5.402344 69.300781 42.300782 106.199219 18 18.003906 37.796875 32.703125 55.199218 41.703125 9.601563 4.5 20.402344 8.398437 30.597657 8.398437 7.5 0 14.703125-2.097656 20.402343-7.800781 18.898438-18.898437 18.300782-87.597656-21.300781-127.199219zm0 0" fill="#678d12"/><path d="m408.800781 195.585938c-8.398437 10.496093-17.402343 20.699218-26.699219 30.296874-8.699218 9.300782-18 18-27.601562 26.402344-4.199219 3.597656-7.796875 7.5-11.996094 11.097656l-17.703125 14.703126c-19.796875-5.703126-39.898437-17.101563-57-33.902344-17.097656-17.398438-28.5-37.199219-34.199219-56.699219l15-18c3.601563-4.199219 7.5-7.796875 11.101563-12 8.398437-9.601563 17.097656-18.898437 26.398437-27.597656 9.601563-9.300781 19.800782-18.300781 30.296876-26.699219 19.800781 5.699219 40.203124 17.398438 57.601562 34.800781 17.398438 17.394531 29.101562 37.496094 34.800781 57.597657zm0 0" fill="#fed2a4"/><path d="m135.144531 376.882812c39.601563 39.601563 40.199219 108.300782 21.300781 127.203126-5.699218 5.699218-12.902343 7.796874-20.402343 7.796874-10.195313 0-20.996094-3.898437-30.597657-8.398437-17.402343-9-37.199218-23.699219-55.199218-41.699219zm0 0" fill="#487904"/><path d="m374 137.984375c17.402344 17.398437 29.101562 37.5 34.800781 57.601563-8.398437 10.496093-17.402343 20.699218-26.699219 30.296874-8.699218 9.300782-18 18-27.601562 26.402344-4.199219 3.597656-7.796875 7.5-11.996094 11.097656l-17.703125 14.703126c-19.796875-5.703126-39.898437-17.101563-57-33.902344zm0 0" fill="#ffbd86"/><path d="m318.996094 243.90625c-10.777344-5.078125-21.097656-12.25-29.980469-20.9375-8.921875-9.117188-16.082031-19.207031-21.152344-29.738281l3.632813-4.359375c1.222656-1.414063 2.710937-2.960938 4.28125-4.59375 2.003906-2.085938 4.273437-4.445313 6.59375-7.144532 8.710937-9.953124 16.636718-18.242187 24.226562-25.339843l.378906-.363281c4.949219-4.792969 10.046876-9.480469 15.246094-14.019532 10.945313 5.222656 21.46875 12.691406 30.566406 21.789063 9.296876 9.292969 16.691407 19.65625 21.835938 30.503906-4.554688 5.21875-9.257812 10.335937-14.070312 15.308594l-.363282.378906c-7.085937 7.574219-15.375 15.5-25.335937 24.222656-2.703125 2.324219-5.066407 4.59375-7.152344 6.601563-1.625 1.5625-3.164063 3.042968-4.570313 4.261718zm0 0" fill="#68544f"/><g fill="#53433f"><path d="m352.789062 159.199219-63.773437 63.769531c8.882813 8.6875 19.203125 15.859375 29.984375 20.9375l4.132812-3.429688c1.402344-1.21875 2.941407-2.695312 4.570313-4.261718 2.085937-2.007813 4.449219-4.277344 7.148437-6.601563 9.964844-8.71875 18.253907-16.644531 25.339844-24.222656l.363282-.378906c4.8125-4.972657 9.515624-10.085938 14.070312-15.304688-5.144531-10.851562-12.539062-21.210937-21.835938-30.507812zm0 0"/><path d="m416.308594 95.402344 21.296875-21.296875 74.402343 74.398437-21.300781 21.300782zm0 0"/></g></svg>