<svg id="Layer_1" height="512" viewBox="0 0 512 512" width="512" xmlns="http://www.w3.org/2000/svg" data-name="Layer 1"><g fill="#ddb96f"><path d="m465.62 321.44a24.613 24.613 0 0 1 0 34.83l-17.41 17.42-.4.13-17.48-52.23.46-.15a24.625 24.625 0 0 1 34.83 0z"/><path d="m440.01 244.6a24.637 24.637 0 0 1 0 34.83l-17.82 17.83-17.57-52.47.56-.19a24.625 24.625 0 0 1 34.83 0z"/><path d="m268.4 72.99a24.637 24.637 0 0 1 0 34.84l-.18.55-52.47-17.57 17.82-17.82a24.637 24.637 0 0 1 34.83 0z"/><path d="m191.56 47.38a24.625 24.625 0 0 1 0 34.83l-.15.46-52.23-17.48.13-.39 17.42-17.42a24.613 24.613 0 0 1 34.83 0z"/></g><path d="m451.98 20.49-1.28.24a117.332 117.332 0 0 0 -14.53 3.63 118.733 118.733 0 0 0 -48.03 29.21l-249.74 249.74-44.71 85.54-8.41 16.09a16.3 16.3 0 0 0 22.18 22.18l16.09-8.41 86.56-45.73 248.72-248.72a118.608 118.608 0 0 0 29.21-48.04 121.786 121.786 0 0 0 3.67-14.75l.2-1.05a34.3 34.3 0 0 0 -39.93-39.93z" fill="#b9cfea"/><path d="m451.98 20.49a34.3 34.3 0 0 1 39.93 39.93l-.2 1.05a121.786 121.786 0 0 1 -3.67 14.75l-.48-.15-21.55 10.77a30.144 30.144 0 0 1 -40.45-40.45l10.77-21.54-.16-.49a117.332 117.332 0 0 1 14.53-3.63z" fill="#70c2ff"/><path d="m387.85 195.75-.25-.25-84.54 84.52.78.77 139.33 186.46 26.64-26.63z" fill="#fb6771"/><path d="m438.44 129.13 13.64 1.88-35.55 35.55-14.09-14.09 16.93-16.93a22.569 22.569 0 0 1 19.07-6.41z" fill="#99afc1"/><path d="m402.44 152.47 14.09 14.09-24.88 24.88-14.09-14.09z" fill="#abc1d6"/><path d="m377.56 177.35 14.09 14.09q-2.01 2.01-4.05 4.06c-6.82 6.81-13.78 13.78-20.83 20.82l-14.09-14.1z" fill="#99afc1"/><path d="m383.58 74.27a22.609 22.609 0 0 1 -6.41 19.07l-16.93 16.93-14.23-14.22-.17-.17 35.66-35.66.17.17z" fill="#99afc1"/><path d="m352.68 202.22 14.09 14.1-24.87 24.87-14.09-14.09z" fill="#abc1d6"/><path d="m360.24 110.27-24.88 24.88-14.22-14.22-.18-.18 24.88-24.87.17.17z" fill="#abc1d6"/><path d="m327.81 227.1 14.09 14.09-24.88 24.88-14.09-14.09z" fill="#99afc1"/><path d="m335.36 135.15-24.88 24.87-14.22-14.22-.17-.17 20.82-20.82 4.05-4.06.18.18z" fill="#99afc1"/><path d="m302.93 251.98 14.09 14.09q-7.065 7.065-13.96 13.95-5.535 5.535-10.92 10.92l-14.09-14.09z" fill="#abc1d6"/><path d="m316.65 124.55-244.87-81.96-26.63 26.64 186.46 139.33.77.77 84.53-84.52z" fill="#fb6771"/><path d="m310.48 160.02-24.87 24.88-14.23-14.22-.17-.17 24.88-24.88.17.17z" fill="#abc1d6"/><path d="m278.05 276.85 14.09 14.09c-8.69 8.7-17.04 17.05-24.87 24.88l-14.09-14.09z" fill="#99afc1"/><path d="m285.61 184.9-24.88 24.88-14.22-14.22-.18-.18 24.88-24.87.17.17z" fill="#99afc1"/><path d="m253.18 301.73 14.09 14.09c-13.02 13.02-24.6 24.6-33.92 33.93l-2.57-9.75a22.628 22.628 0 0 1 5.87-21.75z" fill="#abc1d6"/><path d="m260.73 209.78-24.88 24.87-14.22-14.22-.17-.17 10.92-10.93 13.95-13.95.18.18z" fill="#abc1d6"/><path d="m235.85 234.65-24.87 24.88-14.23-14.22-.17-.17 24.88-24.88.17.17z" fill="#99afc1"/><path d="m210.11 372.98 7.58 98.06-21.04 21.05-72.8-72.8-.3-.58 85.54-44.71z" fill="#70c2ff"/><path d="m210.98 259.53-16.53 16.52a22.585 22.585 0 0 1 -21.74 5.88l-9.95-2.62-.18-.18 34-33.99.17.17z" fill="#abc1d6"/><path d="m139.42 302.29-1.02 1.02-44.71 85.54-.58-.3-73.59-73.6 21.04-21.04z" fill="#70c2ff"/><path d="m316.65 124.55-244.87-81.96-26.63 26.64 19.458 14.54 20.172-20.18 219.785 73.564 12.345-12.344z" fill="#db5663"/><path d="m128.995 321.304 9.405-17.994 1.02-1.02-98.86-8.38-21.04 21.04 16.999 17.001 17.041-17.041z" fill="#5eacdd"/><path d="m93.66 83.552a5.971 5.971 0 0 1 -3.587-1.2l-8.291-6.195a6 6 0 0 1 7.183-9.612l8.291 6.2a6 6 0 0 1 -3.6 10.807z" fill="#f4f8fc"/><path d="m199.505 162.645a5.967 5.967 0 0 1 -3.587-1.2l-83.149-62.128a6 6 0 1 1 7.183-9.612l83.148 62.133a6 6 0 0 1 -3.6 10.807z" fill="#f4f8fc"/></svg>