<?xml version="1.0" encoding="iso-8859-1"?>
<!-- Generator: Adobe Illustrator 19.0.0, SVG Export Plug-In . SVG Version: 6.00 Build 0)  -->
<svg version="1.1" id="Capa_1" xmlns="http://www.w3.org/2000/svg" xmlns:xlink="http://www.w3.org/1999/xlink" x="0px" y="0px"
	 viewBox="0 0 512.007 512.007" style="enable-background:new 0 0 512.007 512.007;" xml:space="preserve">
<path style="fill:#4CCE87;" d="M353.553,114.092c0,11.533-9.423,20.883-21.049,20.883H179.496c-11.626,0-21.049-9.35-21.049-20.883
	l0,0c0-11.533,9.423-20.882,21.049-20.882h153.008C344.13,93.211,353.553,102.56,353.553,114.092L353.553,114.092z"/>
<path style="opacity:0.1;enable-background:new    ;" d="M186.662,114.093c0-11.533,9.425-20.883,21.047-20.883h-28.214
	c-11.623,0-21.048,9.35-21.048,20.883c0,11.535,9.425,20.883,21.048,20.883h28.214C196.087,134.978,186.662,125.629,186.662,114.093
	z"/>
<g>
	<path style="fill:#A4E6C2;" d="M356.647,131.405c1.823,0,3.3,1.462,3.3,3.266v8.595c0,22.912-18.83,41.554-41.978,41.554H194.032
		c-23.149,0-41.979-18.642-41.979-41.554v-8.595c0-1.804,1.477-3.266,3.297-3.266H356.647z"/>
	<path style="fill:#A4E6C2;" d="M348.494,101.828c-3.662,0-7.019-1.662-9.209-4.559c-0.251-0.333-0.651-0.531-1.07-0.531
		c-0.417,0-0.816,0.198-1.068,0.531c-2.19,2.896-5.545,4.559-9.207,4.559c-3.663,0-7.017-1.662-9.208-4.559
		c-0.252-0.333-0.651-0.531-1.069-0.531s-0.818,0.198-1.069,0.531c-2.19,2.896-5.547,4.559-9.208,4.559
		c-3.659,0-7.018-1.662-9.208-4.559c-0.249-0.333-0.65-0.531-1.068-0.531c-0.419,0-0.817,0.198-1.069,0.531
		c-2.191,2.896-5.546,4.559-9.207,4.559c-3.663,0-7.021-1.662-9.209-4.559c-0.252-0.333-0.651-0.531-1.069-0.531
		s-0.818,0.198-1.069,0.531c-2.19,2.896-5.546,4.559-9.208,4.559c-3.663,0-7.019-1.662-9.208-4.559
		c-0.25-0.333-0.65-0.531-1.068-0.531s-0.818,0.198-1.068,0.531c-2.189,2.896-5.547,4.559-9.209,4.559
		c-3.661,0-7.019-1.662-9.209-4.559c-0.249-0.333-0.649-0.531-1.067-0.531c-0.42,0-0.819,0.198-1.07,0.531
		c-2.191,2.896-5.545,4.559-9.208,4.559c-3.661,0-7.018-1.662-9.207-4.559c-0.252-0.333-0.65-0.531-1.069-0.531
		c-0.418,0-0.819,0.198-1.068,0.531c-2.19,2.896-5.549,4.559-9.21,4.559c-3.66,0-7.017-1.662-9.206-4.559
		c-0.251-0.333-0.65-0.531-1.069-0.531c-0.418,0-0.818,0.198-1.069,0.531c-2.191,2.896-5.547,4.559-9.208,4.559
		c-3.662,0-7.018-1.662-9.206-4.559c-0.253-0.333-0.652-0.531-1.073-0.531c-0.417,0-0.815,0.198-1.067,0.531
		c-2.189,2.896-5.547,4.559-9.208,4.559c-6.316,0-11.453-5.021-11.453-11.194V73.199c0-22.531,18.475-40.861,41.182-40.861H318.77
		c22.709,0,41.184,18.33,41.184,40.861v17.436C359.947,96.808,354.809,101.828,348.494,101.828z"/>
</g>
<g style="opacity:0.1;">
	<path d="M180.054,73.199c0-22.532,18.474-40.861,41.183-40.861h-28.001c-22.709,0-41.183,18.329-41.183,40.861v17.437
		c0,6.172,5.138,11.193,11.453,11.193c3.662,0,7.018-1.661,9.208-4.559c0.251-0.332,0.652-0.53,1.069-0.53
		c0.418,0,0.818,0.198,1.068,0.53c1.355,1.793,3.158,3.108,5.202,3.854V73.199H180.054z"/>
</g>
<path style="fill:#FAE4C8;" d="M436.544,262.189c0,11.534-9.425,20.883-21.047,20.883H262.484c-11.621,0-21.046-9.349-21.046-20.883
	l0,0c0-11.533,9.425-20.883,21.046-20.883h153.013C427.119,241.306,436.544,250.655,436.544,262.189L436.544,262.189z"/>
<g>
	<path style="fill:#71C77A;" d="M439.641,279.501c1.82,0,3.298,1.462,3.298,3.265v8.595c0,22.914-18.831,41.553-41.979,41.553
		H277.023c-23.148,0-41.98-18.64-41.98-41.553v-8.595c0-1.803,1.477-3.265,3.297-3.265H439.641z"/>
	<path style="fill:#71C77A;" d="M431.484,249.923c-3.661,0-7.017-1.661-9.208-4.558c-0.251-0.332-0.65-0.53-1.068-0.53
		s-0.818,0.198-1.069,0.53c-2.191,2.898-5.547,4.558-9.208,4.558s-7.019-1.661-9.207-4.558c-0.252-0.332-0.652-0.53-1.071-0.53
		c-0.418,0-0.817,0.198-1.066,0.53c-2.192,2.898-5.548,4.558-9.209,4.558c-3.663,0-7.018-1.661-9.209-4.558
		c-0.25-0.332-0.65-0.53-1.069-0.53c-0.418,0-0.818,0.198-1.068,0.53c-2.19,2.898-5.546,4.558-9.208,4.558s-7.019-1.661-9.208-4.558
		c-0.251-0.331-0.65-0.529-1.069-0.529c-0.418,0-0.817,0.197-1.069,0.529c-2.188,2.898-5.546,4.558-9.207,4.558
		c-3.663,0-7.019-1.661-9.208-4.558c-0.252-0.332-0.65-0.53-1.068-0.53c-0.42,0-0.819,0.198-1.069,0.53
		c-2.191,2.898-5.547,4.558-9.21,4.558c-3.66,0-7.017-1.661-9.208-4.558c-0.25-0.332-0.649-0.529-1.069-0.529
		c-0.416,0-0.816,0.198-1.067,0.53c-2.19,2.896-5.546,4.557-9.209,4.557c-3.66,0-7.018-1.661-9.208-4.558
		c-0.25-0.332-0.65-0.53-1.068-0.53c-0.419,0-0.819,0.198-1.069,0.53c-2.19,2.898-5.547,4.558-9.208,4.558
		c-3.662,0-7.018-1.661-9.207-4.558c-0.252-0.332-0.651-0.53-1.07-0.53c-0.418,0-0.817,0.198-1.068,0.53
		c-2.19,2.898-5.547,4.558-9.207,4.558c-3.662,0-7.018-1.661-9.209-4.558c-0.251-0.332-0.65-0.53-1.069-0.53
		c-0.417,0-0.817,0.198-1.069,0.53c-2.189,2.898-5.546,4.558-9.208,4.558c-6.316,0-11.453-5.021-11.453-11.193v-17.436
		c0-22.532,18.474-40.861,41.184-40.861h125.527c22.708,0,41.182,18.329,41.182,40.861l0.001,17.437
		C442.938,244.901,437.8,249.923,431.484,249.923z"/>
</g>
<path style="fill:#FF7697;" d="M282.385,262.189c0,11.534-9.424,20.883-21.047,20.883H108.327c-11.623,0-21.048-9.349-21.048-20.883
	l0,0c0-11.533,9.425-20.883,21.048-20.883h153.011C272.961,241.306,282.385,250.655,282.385,262.189L282.385,262.189z"/>
<path style="opacity:0.1;enable-background:new    ;" d="M115.494,262.189c0-11.533,9.424-20.883,21.047-20.883h-28.214
	c-11.623,0-21.048,9.35-21.048,20.883c0,11.534,9.425,20.883,21.048,20.883h28.214C124.918,283.072,115.494,273.723,115.494,262.189
	z"/>
<path style="fill:#FF96B1;" d="M285.482,279.501c1.82,0,3.297,1.462,3.297,3.265v8.595c0,22.914-18.831,41.553-41.979,41.553
	H122.864c-23.146,0-41.979-18.64-41.979-41.553v-8.595c0-1.803,1.476-3.265,3.299-3.265H285.482z"/>
<path style="opacity:0.1;enable-background:new    ;" d="M114.865,291.362v-8.595c0-1.803,1.476-3.265,3.298-3.265H84.184
	c-1.822,0-3.299,1.462-3.299,3.265v8.595c0,22.914,18.834,41.553,41.979,41.553h33.979
	C133.698,332.915,114.865,314.276,114.865,291.362z"/>
<path style="opacity:0.1;enable-background:new    ;" d="M186.032,143.267v-8.596c0-1.803,1.476-3.265,3.298-3.265h-33.98
	c-1.821,0-3.297,1.462-3.297,3.265v8.596c0,22.913,18.832,41.553,41.979,41.553h33.979
	C204.865,184.819,186.032,166.18,186.032,143.267z"/>
<path style="fill:#FF96B1;" d="M277.325,249.923c-3.661,0-7.017-1.661-9.206-4.558c-0.253-0.332-0.651-0.53-1.07-0.53
	c-0.418,0-0.818,0.198-1.069,0.53c-2.189,2.898-5.547,4.558-9.208,4.558c-3.661,0-7.017-1.661-9.207-4.558
	c-0.251-0.332-0.652-0.53-1.07-0.53c-0.418,0-0.818,0.198-1.067,0.53c-2.192,2.898-5.548,4.558-9.208,4.558
	c-3.661,0-7.019-1.661-9.209-4.558c-0.251-0.332-0.65-0.53-1.07-0.53c-0.417,0-0.816,0.198-1.067,0.53
	c-2.191,2.898-5.547,4.558-9.209,4.558s-7.019-1.661-9.207-4.558c-0.251-0.331-0.651-0.529-1.068-0.529
	c-0.419,0-0.818,0.197-1.071,0.529c-2.188,2.898-5.545,4.558-9.207,4.558s-7.019-1.661-9.207-4.558
	c-0.252-0.332-0.65-0.53-1.069-0.53c-0.42,0-0.819,0.198-1.068,0.53c-2.191,2.898-5.548,4.558-9.21,4.558
	c-3.661,0-7.017-1.661-9.209-4.558c-0.25-0.332-0.648-0.529-1.068-0.529c-0.417,0-0.817,0.198-1.068,0.53
	c-2.189,2.896-5.546,4.557-9.208,4.557c-3.661,0-7.017-1.661-9.207-4.558c-0.252-0.332-0.652-0.53-1.069-0.53
	c-0.419,0-0.819,0.198-1.068,0.53c-2.191,2.898-5.549,4.558-9.209,4.558s-7.019-1.661-9.208-4.558c-0.251-0.332-0.65-0.53-1.07-0.53
	c-0.417,0-0.817,0.198-1.068,0.53c-2.19,2.898-5.546,4.558-9.207,4.558c-3.662,0-7.019-1.661-9.208-4.558
	c-0.251-0.332-0.651-0.53-1.07-0.53c-0.416,0-0.817,0.198-1.068,0.53c-2.189,2.898-5.546,4.558-9.208,4.558
	c-6.315,0-11.454-5.021-11.454-11.193v-17.436c0-22.532,18.475-40.861,41.184-40.861h125.527c22.71,0,41.183,18.329,41.183,40.861
	l0.001,17.437C288.779,244.901,283.641,249.923,277.325,249.923z"/>
<g style="opacity:0.1;">
	<path d="M108.887,221.293c0-22.532,18.474-40.861,41.183-40.861h-28.001c-22.709,0-41.184,18.329-41.184,40.861v17.437
		c0,6.172,5.139,11.193,11.454,11.193c3.662,0,7.019-1.661,9.208-4.558c0.251-0.332,0.652-0.53,1.068-0.53
		c0.419,0,0.819,0.198,1.07,0.53c1.354,1.792,3.157,3.108,5.201,3.854L108.887,221.293L108.887,221.293z"/>
</g>
<path style="fill:#F6B142;" d="M201.5,408.751c0,11.534-9.424,20.884-21.047,20.884H27.44c-11.622,0-21.046-9.35-21.046-20.884l0,0
	c0-11.533,9.424-20.883,21.046-20.883h153.013C192.076,387.867,201.5,397.217,201.5,408.751L201.5,408.751z"/>
<path style="opacity:0.1;enable-background:new    ;" d="M34.608,408.751c0-11.533,9.425-20.883,21.048-20.883H27.441
	c-11.623,0-21.047,9.35-21.047,20.883c0,11.534,9.424,20.883,21.047,20.883h28.215C44.033,429.634,34.608,420.285,34.608,408.751z"
	/>
<path style="fill:#7F332D;" d="M204.597,426.256c1.821,0,3.298,1.463,3.298,3.266v8.595c0,22.913-18.831,41.553-41.98,41.553H41.979
	C18.833,479.669,0,461.029,0,438.117v-8.595c0-1.803,1.477-3.266,3.298-3.266H204.597z"/>
<path style="opacity:0.1;enable-background:new    ;" d="M33.979,438.117v-8.596c0-1.803,1.477-3.265,3.298-3.265H3.298
	c-1.822,0-3.298,1.462-3.298,3.265v8.596c0,22.914,18.833,41.553,41.979,41.553h33.98C52.813,479.669,33.979,461.03,33.979,438.117z
	"/>
<path style="fill:#7F332D;" d="M196.439,396.678c-3.661,0-7.016-1.662-9.207-4.559c-0.251-0.332-0.65-0.53-1.069-0.53
	c-0.418,0-0.818,0.198-1.068,0.53c-2.19,2.898-5.547,4.559-9.208,4.559c-3.661,0-7.019-1.662-9.208-4.559
	c-0.25-0.332-0.65-0.53-1.069-0.53s-0.818,0.198-1.069,0.53c-2.19,2.898-5.546,4.559-9.207,4.559c-3.663,0-7.018-1.662-9.208-4.559
	c-0.252-0.332-0.652-0.53-1.07-0.53s-0.818,0.198-1.068,0.53c-2.19,2.898-5.547,4.559-9.209,4.559s-7.017-1.662-9.208-4.559
	c-0.251-0.331-0.649-0.529-1.067-0.529s-0.818,0.197-1.069,0.529c-2.189,2.898-5.548,4.559-9.208,4.559
	c-3.663,0-7.02-1.662-9.209-4.559c-0.25-0.332-0.65-0.53-1.068-0.53s-0.818,0.198-1.068,0.53c-2.191,2.898-5.547,4.559-9.209,4.559
	s-7.018-1.662-9.208-4.559c-0.252-0.332-0.65-0.529-1.069-0.529c-0.418,0-0.818,0.198-1.068,0.53
	c-2.19,2.897-5.547,4.558-9.21,4.558c-3.66,0-7.017-1.662-9.206-4.559c-0.251-0.332-0.65-0.53-1.069-0.53
	c-0.418,0-0.818,0.198-1.069,0.53c-2.19,2.898-5.547,4.559-9.208,4.559s-7.019-1.662-9.206-4.559
	c-0.253-0.332-0.652-0.53-1.072-0.53c-0.417,0-0.816,0.198-1.068,0.53c-2.189,2.898-5.547,4.559-9.207,4.559
	c-3.662,0-7.017-1.662-9.208-4.559c-0.252-0.332-0.651-0.53-1.069-0.53s-0.818,0.198-1.068,0.53
	c-2.19,2.898-5.548,4.559-9.208,4.559c-6.322,0-11.46-5.022-11.46-11.194v-17.437c0-22.53,18.474-40.861,41.182-40.861H166.71
	c22.711,0,41.184,18.331,41.184,40.861v17.437C207.894,391.657,202.756,396.678,196.439,396.678z"/>
<g style="opacity:0.1;">
	<path d="M28.001,368.049c0-22.532,18.474-40.861,41.183-40.861h-28C18.474,327.188,0,345.517,0,368.049v17.437
		c0,6.172,5.138,11.193,11.454,11.193c3.661,0,7.018-1.661,9.208-4.558c0.25-0.332,0.651-0.53,1.068-0.53
		c0.418,0,0.818,0.198,1.069,0.53c1.355,1.793,3.158,3.108,5.201,3.854L28.001,368.049L28.001,368.049z"/>
</g>
<path style="fill:#7F332D;" d="M505.605,408.944c0,11.534-9.424,20.884-21.048,20.884h-153.01c-11.624,0-21.048-9.35-21.048-20.884
	l0,0c0-11.533,9.424-20.883,21.048-20.883h153.01C496.182,388.06,505.605,397.41,505.605,408.944L505.605,408.944z"/>
<g>
	<path style="fill:#F6B142;" d="M508.702,426.256c1.821,0,3.298,1.463,3.298,3.266v8.595c0,22.913-18.831,41.553-41.978,41.553
		H346.086c-23.149,0-41.979-18.641-41.979-41.553v-8.595c0-1.803,1.476-3.266,3.297-3.266H508.702z"/>
	<path style="fill:#F6B142;" d="M500.546,396.678c-3.661,0-7.018-1.662-9.208-4.558c-0.252-0.333-0.65-0.531-1.069-0.531
		s-0.817,0.198-1.068,0.53c-2.191,2.898-5.546,4.559-9.207,4.559c-3.663,0-7.019-1.662-9.208-4.558
		c-0.252-0.333-0.652-0.531-1.071-0.531c-0.417,0-0.816,0.198-1.069,0.53c-2.189,2.898-5.545,4.559-9.208,4.559
		c-3.659,0-7.016-1.662-9.206-4.558c-0.251-0.333-0.651-0.531-1.069-0.531s-0.818,0.198-1.069,0.53
		c-2.19,2.898-5.547,4.559-9.207,4.559c-3.662,0-7.02-1.662-9.209-4.558c-0.251-0.332-0.65-0.531-1.068-0.531
		c-0.419,0-0.817,0.198-1.069,0.531c-2.191,2.897-5.546,4.558-9.208,4.558c-3.664,0-7.019-1.662-9.208-4.558
		c-0.252-0.333-0.651-0.531-1.069-0.531s-0.818,0.198-1.068,0.53c-2.19,2.898-5.547,4.559-9.209,4.559
		c-3.661,0-7.019-1.662-9.209-4.559c-0.25-0.332-0.65-0.53-1.067-0.53c-0.421,0-0.819,0.199-1.07,0.531
		c-2.189,2.897-5.546,4.558-9.207,4.558s-7.019-1.662-9.208-4.558c-0.25-0.333-0.65-0.531-1.068-0.531s-0.82,0.198-1.07,0.53
		c-2.19,2.898-5.547,4.559-9.208,4.559s-7.017-1.662-9.207-4.558c-0.252-0.333-0.65-0.531-1.069-0.531s-0.819,0.198-1.068,0.53
		c-2.19,2.898-5.549,4.559-9.21,4.559c-3.659,0-7.017-1.662-9.206-4.558c-0.251-0.333-0.651-0.531-1.07-0.531
		c-0.418,0-0.818,0.198-1.068,0.53c-2.191,2.898-5.547,4.559-9.208,4.559c-6.316,0-11.453-5.022-11.453-11.194v-17.437
		c0-22.53,18.473-40.861,41.182-40.861h125.528c22.709,0,41.184,18.331,41.184,40.861v17.437
		C512,391.657,506.861,396.678,500.546,396.678z"/>
</g>
<g>
	<path style="fill:#7F332D;" d="M411.684,352.589h-7.896c-4.143,0-7.5-3.358-7.5-7.5s3.357-7.5,7.5-7.5h7.896
		c4.143,0,7.5,3.358,7.5,7.5S415.826,352.589,411.684,352.589z"/>
	<path style="fill:#7F332D;" d="M467.767,364.342h-7.899c-4.143,0-7.5-3.358-7.5-7.5s3.357-7.5,7.5-7.5h7.899
		c4.143,0,7.5,3.358,7.5,7.5S471.909,364.342,467.767,364.342z"/>
	<path style="fill:#7F332D;" d="M434.592,379.23h-7.899c-4.143,0-7.5-3.358-7.5-7.5s3.357-7.5,7.5-7.5h7.899
		c4.143,0,7.5,3.358,7.5,7.5S438.734,379.23,434.592,379.23z"/>
	<path style="fill:#7F332D;" d="M384.829,379.23h-7.899c-4.143,0-7.5-3.358-7.5-7.5s3.357-7.5,7.5-7.5h7.899
		c4.143,0,7.5,3.358,7.5,7.5S388.972,379.23,384.829,379.23z"/>
	<path style="fill:#7F332D;" d="M512,376.785v-8.737c0-0.474-0.02-0.942-0.036-1.412c-1.37-1.476-3.32-2.405-5.493-2.405h-7.899
		c-4.143,0-7.5,3.358-7.5,7.5s3.357,7.5,7.5,7.5h7.899C508.663,379.23,510.629,378.284,512,376.785z"/>
	<path style="fill:#7F332D;" d="M467.767,450.535h-7.899c-4.143,0-7.5-3.358-7.5-7.5s3.357-7.5,7.5-7.5h7.899
		c4.143,0,7.5,3.358,7.5,7.5S471.909,450.535,467.767,450.535z"/>
	<path style="fill:#7F332D;" d="M434.592,465.423h-7.899c-4.143,0-7.5-3.358-7.5-7.5s3.357-7.5,7.5-7.5h7.899
		c4.143,0,7.5,3.358,7.5,7.5S438.734,465.423,434.592,465.423z"/>
	<path style="fill:#7F332D;" d="M384.829,465.423h-7.899c-4.143,0-7.5-3.358-7.5-7.5s3.357-7.5,7.5-7.5h7.899
		c4.143,0,7.5,3.358,7.5,7.5S388.972,465.423,384.829,465.423z"/>
	<path style="fill:#7F332D;" d="M508.846,453.902c-1.332-2.089-3.663-3.478-6.324-3.478h-7.899c-4.143,0-7.5,3.358-7.5,7.5
		s3.357,7.5,7.5,7.5h7.001C504.626,462.023,507.08,458.139,508.846,453.902z"/>
</g>
<path style="fill:#FEFBF7;" d="M352.52,408.944c0,11.534-9.425,20.884-21.049,20.884h-153.01c-11.624,0-21.048-9.35-21.048-20.884
	l0,0c0-11.533,9.424-20.883,21.048-20.883h153.01C343.095,388.06,352.52,397.41,352.52,408.944L352.52,408.944z"/>
<path style="opacity:0.1;enable-background:new    ;" d="M185.628,408.944c0-11.533,9.425-20.883,21.047-20.883h-28.214
	c-11.623,0-21.048,9.35-21.048,20.883c0,11.534,9.425,20.883,21.048,20.883h28.214C195.053,429.827,185.628,420.478,185.628,408.944
	z"/>
<path style="fill:#FBE24F;" d="M355.614,426.256c1.822,0,3.299,1.462,3.299,3.266v8.595c0,22.913-18.831,41.553-41.978,41.553
	H192.998c-23.148,0-41.98-18.641-41.98-41.553v-8.595c0-1.804,1.478-3.266,3.299-3.266H355.614z"/>
<path style="opacity:0.1;enable-background:new    ;" d="M184.998,438.117v-8.596c0-1.803,1.476-3.265,3.298-3.265h-33.979
	c-1.822,0-3.299,1.462-3.299,3.265v8.596c0,22.914,18.834,41.553,41.98,41.553h33.979
	C203.831,479.669,184.998,461.03,184.998,438.117z"/>
<path style="fill:#FBE24F;" d="M347.459,396.678c-3.661,0-7.019-1.662-9.207-4.559c-0.252-0.332-0.65-0.53-1.07-0.53
	c-0.417,0-0.817,0.198-1.069,0.53c-2.189,2.898-5.546,4.559-9.207,4.559c-3.662,0-7.018-1.662-9.207-4.559
	c-0.252-0.332-0.652-0.53-1.069-0.53c-0.419,0-0.819,0.198-1.069,0.53c-2.191,2.898-5.547,4.559-9.21,4.559
	c-3.659,0-7.016-1.662-9.207-4.559c-0.25-0.332-0.649-0.53-1.068-0.53c-0.418,0-0.818,0.198-1.069,0.53
	c-2.19,2.898-5.547,4.559-9.208,4.559c-3.662,0-7.019-1.662-9.208-4.559c-0.251-0.331-0.651-0.53-1.069-0.53
	c-0.417,0-0.817,0.198-1.068,0.53c-2.191,2.898-5.546,4.559-9.208,4.559c-3.664,0-7.019-1.662-9.209-4.559
	c-0.251-0.332-0.649-0.53-1.068-0.53c-0.419,0-0.817,0.198-1.068,0.53c-2.191,2.898-5.548,4.559-9.209,4.559
	c-3.662,0-7.019-1.662-9.209-4.559c-0.249-0.332-0.65-0.53-1.068-0.53s-0.818,0.199-1.069,0.531
	c-2.188,2.897-5.545,4.558-9.207,4.558c-3.661,0-7.018-1.662-9.207-4.559c-0.253-0.332-0.652-0.53-1.069-0.53
	c-0.42,0-0.819,0.198-1.068,0.53c-2.192,2.898-5.549,4.559-9.211,4.559c-3.659,0-7.016-1.662-9.207-4.559
	c-0.251-0.332-0.65-0.53-1.068-0.53c-0.419,0-0.819,0.198-1.069,0.53c-2.189,2.898-5.547,4.559-9.208,4.559
	c-3.661,0-7.019-1.662-9.208-4.559c-0.251-0.332-0.651-0.53-1.07-0.53c-0.418,0-0.816,0.198-1.067,0.53
	c-2.191,2.898-5.547,4.559-9.208,4.559c-6.316,0-11.455-5.022-11.455-11.195v-17.436c0-22.53,18.476-40.861,41.184-40.861h125.528
	c22.709,0,41.183,18.331,41.183,40.861l0.001,17.436C358.913,391.657,353.774,396.678,347.459,396.678z"/>
<g style="opacity:0.1;">
	<path d="M179.02,368.049c0-22.532,18.474-40.861,41.183-40.861h-28.001c-22.709,0-41.184,18.329-41.184,40.861v17.437
		c0,6.172,5.139,11.193,11.454,11.193c3.662,0,7.019-1.661,9.208-4.558c0.251-0.332,0.652-0.53,1.068-0.53
		c0.419,0,0.819,0.198,1.07,0.53c1.354,1.793,3.157,3.108,5.201,3.854v-27.926H179.02z"/>
</g>
<g>
	<path style="fill:#4CCE87;" d="M196.44,155.685h-7.898c-4.143,0-7.5-3.358-7.5-7.5s3.357-7.5,7.5-7.5h7.898
		c4.143,0,7.5,3.358,7.5,7.5S200.583,155.685,196.44,155.685z"/>
	<path style="fill:#4CCE87;" d="M315.713,155.685h-7.898c-4.143,0-7.5-3.358-7.5-7.5s3.357-7.5,7.5-7.5h7.898
		c4.143,0,7.5,3.358,7.5,7.5S319.855,155.685,315.713,155.685z"/>
	<path style="fill:#4CCE87;" d="M282.538,170.573h-7.899c-4.143,0-7.5-3.358-7.5-7.5s3.357-7.5,7.5-7.5h7.899
		c4.143,0,7.5,3.358,7.5,7.5S286.681,170.573,282.538,170.573z"/>
	<path style="fill:#4CCE87;" d="M232.775,170.573h-7.898c-4.143,0-7.5-3.358-7.5-7.5s3.357-7.5,7.5-7.5h7.898
		c4.143,0,7.5,3.358,7.5,7.5S236.918,170.573,232.775,170.573z"/>
	<path style="fill:#4CCE87;" d="M356.793,159.052c-1.332-2.089-3.663-3.479-6.324-3.479h-7.9c-4.143,0-7.5,3.358-7.5,7.5
		s3.357,7.5,7.5,7.5h7.002C352.573,167.173,355.027,163.289,356.793,159.052z"/>
	<path style="fill:#4CCE87;" d="M172.744,155.573h-7.899c-4.143,0-7.5,3.358-7.5,7.5c0,0.133,0.013,0.262,0.02,0.394
		c1.307,2.313,2.827,4.492,4.54,6.507c0.903,0.386,1.896,0.6,2.94,0.6h7.899c4.143,0,7.5-3.358,7.5-7.5
		C180.244,158.931,176.887,155.573,172.744,155.573z"/>
	<path style="fill:#4CCE87;" d="M259.632,57.739h-7.899c-4.143,0-7.5-3.358-7.5-7.5s3.357-7.5,7.5-7.5h7.899
		c4.143,0,7.5,3.358,7.5,7.5S263.774,57.739,259.632,57.739z"/>
	<path style="fill:#4CCE87;" d="M196.44,69.493h-7.898c-4.143,0-7.5-3.358-7.5-7.5s3.357-7.5,7.5-7.5h7.898
		c4.143,0,7.5,3.358,7.5,7.5S200.583,69.493,196.44,69.493z"/>
	<path style="fill:#4CCE87;" d="M315.713,69.493h-7.898c-4.143,0-7.5-3.358-7.5-7.5s3.357-7.5,7.5-7.5h7.898
		c4.143,0,7.5,3.358,7.5,7.5S319.855,69.493,315.713,69.493z"/>
	<path style="fill:#4CCE87;" d="M282.538,84.38h-7.899c-4.143,0-7.5-3.358-7.5-7.5s3.357-7.5,7.5-7.5h7.899
		c4.143,0,7.5,3.358,7.5,7.5S286.681,84.38,282.538,84.38z"/>
	<path style="fill:#4CCE87;" d="M232.775,84.38h-7.898c-4.143,0-7.5-3.358-7.5-7.5s3.357-7.5,7.5-7.5h7.898
		c4.143,0,7.5,3.358,7.5,7.5S236.918,84.38,232.775,84.38z"/>
	<path style="fill:#4CCE87;" d="M359.947,81.935V73.2c0-0.474-0.02-0.943-0.036-1.414c-1.37-1.476-3.32-2.405-5.493-2.405h-7.898
		c-4.142,0-7.5,3.358-7.5,7.5s3.358,7.5,7.5,7.5h7.898C356.61,84.38,358.576,83.434,359.947,81.935z"/>
	<path style="fill:#4CCE87;" d="M164.845,69.38h-7.898c-1.847,0-3.534,0.67-4.841,1.776c-0.034,0.677-0.053,1.358-0.053,2.043v9.357
		c1.314,1.134,3.021,1.824,4.894,1.824h7.898c4.143,0,7.5-3.358,7.5-7.5S168.987,69.38,164.845,69.38z"/>
</g>
<g>
</g>
<g>
</g>
<g>
</g>
<g>
</g>
<g>
</g>
<g>
</g>
<g>
</g>
<g>
</g>
<g>
</g>
<g>
</g>
<g>
</g>
<g>
</g>
<g>
</g>
<g>
</g>
<g>
</g>
</svg>
