<svg id="Layer_1" enable-background="new 0 0 510.818 510.818" height="512" viewBox="0 0 510.818 510.818" width="512" xmlns="http://www.w3.org/2000/svg"><g><g><path d="m373.597 95.7-299.054-93.205-37.456 36.484 231.93 160.752-8.545 12.327 96.099-90.24 8.099 2.524 4.464-14.321z" fill="#ffc34d"/></g><path d="m313.416 248.878 160.129 237.459 37.273-36.305-94.757-305.472-14.327 4.444v-.001.001l-14.326 4.443 2.334 7.524-91.607 91.417-12.438 8.388 7.208 10.688z" fill="#ff884d"/><path d="m100.952 410.959 52.601 97.364 27.941-24.248 12.136-140.218z" fill="#ff884d"/><path d="m85.626 398.662-85.626-49.938 23.487-28.357 136.99-5.883z" fill="#ffc34d"/><path d="m471.883 29.216-45.171 56.548-101.303 124.645-260.757 229.865c-.03-.15-.01-.27.01-.36l3.16-18.52c1.72-10.03 5.97-19.54 12.3-27.5l69.05-86.91c72.94-86.51 139.81-154.16 223.57-226.2l15.849-13.631s82.722-38.527 83.292-37.937z" fill="#e6f7ff"/><path d="m443.792 123.834-14.04 15.48c-74.22 81.84-143.6 146.9-232 217.54l-92.04 69.26c-6.47 4.87-13.73 8.34-21.57 10.33l-18.24 4.62c-.1.03-.26.06-.44.02-.27-.26-.55-.53-.81-.8v-.01l270.161-264.63 91.83-89.95 40.844-31.884c.57.58-23.695 70.024-23.695 70.024z" fill="#b3d9ff"/><path d="m495.942 17.814-69.3 67.88-.08-.08c-8.08-8.34-18.58-14.32-30.42-16.85l-7.55-1.61 35.87-30.85c12.88-11.08 28.67-18.31 45.68-20.89l13.11-2c3.94-.6 7.81.39 10.93 2.69.33.3.65.61.97.92.27.26.53.52.79.79z" fill="#9af"/><path d="m500.002 30.604-2.34 13.06c-3.04 16.93-10.67 32.54-22.08 45.12l-31.79 35.05-1.41-7.59c-2.19-11.76-7.78-22.31-15.74-30.55l69.3-67.88c.57.58 1.12 1.18 1.66 1.8 2.22 3.18 3.11 7.07 2.4 10.99z" fill="#8080ff"/></g></svg>